<svg xmlns="http://www.w3.org/2000/svg" width="512" height="512" viewBox="0 0 512 512" fill="none">
  <rect width="512" height="512" rx="48" fill="#F8FAFC"/>
  <rect x="72" y="72" width="368" height="368" rx="24" fill="white" stroke="#D1D5DB" stroke-width="8"/>
  <rect x="104" y="104" width="92" height="92" rx="8" fill="#0F172A"/>
  <rect x="120" y="120" width="60" height="60" rx="6" fill="white"/>
  <rect x="136" y="136" width="28" height="28" rx="4" fill="#0F172A"/>
  <rect x="316" y="104" width="92" height="92" rx="8" fill="#0F172A"/>
  <rect x="332" y="120" width="60" height="60" rx="6" fill="white"/>
  <rect x="348" y="136" width="28" height="28" rx="4" fill="#0F172A"/>
  <rect x="104" y="316" width="92" height="92" rx="8" fill="#0F172A"/>
  <rect x="120" y="332" width="60" height="60" rx="6" fill="white"/>
  <rect x="136" y="348" width="28" height="28" rx="4" fill="#0F172A"/>
  <rect x="236" y="236" width="20" height="20" fill="#0F172A"/>
  <rect x="276" y="236" width="20" height="20" fill="#0F172A"/>
  <rect x="316" y="236" width="20" height="20" fill="#0F172A"/>
  <rect x="236" y="276" width="20" height="20" fill="#0F172A"/>
  <rect x="276" y="276" width="20" height="20" fill="#0F172A"/>
  <rect x="356" y="276" width="20" height="20" fill="#0F172A"/>
  <rect x="236" y="316" width="20" height="20" fill="#0F172A"/>
  <rect x="316" y="316" width="20" height="20" fill="#0F172A"/>
  <rect x="356" y="316" width="20" height="20" fill="#0F172A"/>
  <rect x="276" y="356" width="20" height="20" fill="#0F172A"/>
  <rect x="316" y="356" width="20" height="20" fill="#0F172A"/>
  <rect x="356" y="356" width="20" height="20" fill="#0F172A"/>
  <text x="256" y="474" text-anchor="middle" font-size="28" font-family="Arial, sans-serif" fill="#0F766E">
    一对一辅导占位码
  </text>
</svg>
